<svg width="47" height="46" viewBox="0 0 47 46" fill="none" xmlns="http://www.w3.org/2000/svg">
<rect x="0.807617" y="0.0950928" width="45.5729" height="45.5729" rx="13.4038" fill="#6CA2D9"/>
<g clip-path="url(#clip0_651_728)">
<path opacity="0.4" d="M38.426 22.7098C38.426 30.9965 31.7087 37.7138 23.422 37.7138C15.1352 37.7138 8.41797 30.9965 8.41797 22.7098C8.41797 14.4246 15.1352 7.70575 23.422 7.70575C31.7087 7.70575 38.426 14.4246 38.426 22.7098Z" fill="white"/>
<path d="M29.2131 17.7659L26.7825 25.448C26.6924 25.763 26.4374 26.0181 26.1223 26.1096L18.4702 28.5088C17.9601 28.6753 17.4649 28.1786 17.63 27.6686L20.0306 19.9715C20.1207 19.6564 20.3757 19.4163 20.6908 19.3113L28.3729 16.9107C28.898 16.7456 29.3782 17.2407 29.2131 17.7659Z" fill="white"/>
</g>
<defs>
<clipPath id="clip0_651_728">
<rect width="30.8288" height="30.8288" fill="white" transform="translate(8.17969 7.46716)"/>
</clipPath>
</defs>
</svg>
