<svg width="20" height="15" viewBox="0 0 20 15" fill="none" xmlns="http://www.w3.org/2000/svg">
<g id="Group 5833">
<path id="Vector" d="M6.08183 5.20459C5.72245 5.20459 5.3778 5.33442 5.12368 5.56553C4.86957 5.79663 4.72681 6.11008 4.72681 6.43691C4.72681 6.76375 4.86957 7.07719 5.12368 7.3083C5.3778 7.5394 5.72245 7.66924 6.08183 7.66924C6.4412 7.66924 6.78586 7.5394 7.03997 7.3083C7.29409 7.07719 7.43685 6.76375 7.43685 6.43691C7.43685 6.11008 7.29409 5.79663 7.03997 5.56553C6.78586 5.33442 6.4412 5.20459 6.08183 5.20459ZM10.4179 5.20459C10.0585 5.20459 9.71386 5.33442 9.45975 5.56553C9.20563 5.79663 9.06287 6.11008 9.06287 6.43691C9.06287 6.76375 9.20563 7.07719 9.45975 7.3083C9.71386 7.5394 10.0585 7.66924 10.4179 7.66924C10.7773 7.66924 11.1219 7.5394 11.376 7.3083C11.6302 7.07719 11.7729 6.76375 11.7729 6.43691C11.7729 6.11008 11.6302 5.79663 11.376 5.56553C11.1219 5.33442 10.7773 5.20459 10.4179 5.20459ZM13.3989 6.43691C13.3989 6.11008 13.5417 5.79663 13.7958 5.56553C14.0499 5.33442 14.3946 5.20459 14.754 5.20459C15.1133 5.20459 15.458 5.33442 15.7121 5.56553C15.9662 5.79663 16.109 6.11008 16.109 6.43691C16.109 6.76375 15.9662 7.07719 15.7121 7.3083C15.458 7.5394 15.1133 7.66924 14.754 7.66924C14.3946 7.66924 14.0499 7.5394 13.7958 7.3083C13.5417 7.07719 13.3989 6.76375 13.3989 6.43691Z" fill="#F8F8F8"/>
<path id="Vector_2" fill-rule="evenodd" clip-rule="evenodd" d="M14.8622 0.366889C11.942 0.140378 9.00644 0.127191 6.08386 0.327455L5.87465 0.342243C4.53091 0.434469 3.27508 0.984962 2.35866 1.88348C1.44225 2.782 0.932896 3.9622 0.932617 5.18774V13.5843C0.932741 13.7121 0.969299 13.8377 1.03872 13.9489C1.10815 14.06 1.20807 14.1529 1.32873 14.2184C1.4494 14.284 1.58668 14.32 1.7272 14.3228C1.86771 14.3257 2.00665 14.2955 2.13046 14.235L6.36896 12.1637C6.56656 12.0671 6.78744 12.0166 7.01178 12.0168H16.7419C17.969 12.0168 19.0205 11.2182 19.2406 10.121C19.6872 7.89589 19.7219 5.61856 19.3446 3.38263L19.2341 2.72309C19.1358 2.14041 18.8249 1.60471 18.3515 1.20205C17.8781 0.799393 17.2696 0.553168 16.6238 0.502938L14.8622 0.366889ZM6.20744 1.8023C9.04338 1.6077 11.8919 1.62023 14.7256 1.83976L16.4861 1.9768C17.0671 2.02215 17.5397 2.42339 17.6276 2.94787L17.7392 3.60642C18.0884 5.68002 18.0554 7.79203 17.6416 9.85578C17.6033 10.0472 17.4924 10.2203 17.3282 10.3449C17.164 10.4696 16.9569 10.5379 16.743 10.538H7.01178C6.51917 10.5381 6.03425 10.6492 5.60039 10.8614L2.55864 12.348V5.18774C2.5587 4.33515 2.91289 3.51404 3.55029 2.88884C4.18769 2.26363 5.06125 1.88048 5.99606 1.8161L6.20744 1.8023Z" fill="#F8F8F8"/>
</g>
</svg>
