<svg width="8" height="11" viewBox="0 0 8 11" fill="none" xmlns="http://www.w3.org/2000/svg">
<path d="M7.86581 0.842829C7.86639 1.06247 7.78997 1.27063 7.65795 1.40901L4.28719 4.91495C4.07989 5.13512 3.78102 5.13512 3.57372 4.91495L0.202962 1.28561C-0.0359459 1.02904 -0.0686439 0.570816 0.129929 0.262134C0.328501 -0.0465488 0.683149 -0.0887961 0.922056 0.167771L3.93327 3.4124L6.94447 0.276651C7.11286 0.0954075 7.34744 0.0572224 7.54535 0.178843C7.74327 0.300464 7.86837 0.559684 7.86581 0.842829Z" fill="#637381" fill-opacity="0.34"/>
<path d="M7.86581 5.92974C7.86639 6.14938 7.78997 6.35755 7.65795 6.49592L4.28719 10.0019C4.07989 10.222 3.78102 10.222 3.57372 10.0019L0.202962 6.37252C-0.0359459 6.11596 -0.0686439 5.65773 0.129929 5.34905C0.328501 5.04037 0.683149 4.99812 0.922056 5.25468L3.93327 8.49932L6.94447 5.36357C7.11286 5.18232 7.34744 5.14414 7.54535 5.26576C7.74327 5.38738 7.86837 5.6466 7.86581 5.92974Z" fill="#637381"/>
</svg>
