<svg width="8" height="11" viewBox="0 0 8 11" fill="none" xmlns="http://www.w3.org/2000/svg">
<path d="M0.00137281 4.23725C0.000794888 4.01761 0.0772195 3.80944 0.209236 3.67107L3.57999 0.165126C3.7873 -0.0550421 4.08617 -0.0550421 4.29347 0.165126L7.66423 3.79447C7.90313 4.05104 7.93583 4.50926 7.73726 4.81794C7.53869 5.12663 7.18404 5.16887 6.94513 4.91231L3.93392 1.66767L0.922713 4.80343C0.754331 4.98467 0.519747 5.02286 0.321834 4.90124C0.123921 4.77961 -0.00118732 4.52039 0.00137281 4.23725Z" fill="#637381" fill-opacity="0.34"/>
<path d="M0.00137281 9.32416C0.000794888 9.10452 0.0772195 8.89636 0.209236 8.75799L3.57999 5.25204C3.7873 5.03187 4.08617 5.03187 4.29347 5.25204L7.66423 8.88138C7.90313 9.13795 7.93583 9.59618 7.73726 9.90486C7.53869 10.2135 7.18404 10.2558 6.94513 9.99922L3.93392 6.75459L0.922713 9.89034C0.754331 10.0716 0.519747 10.1098 0.321834 9.98815C0.123921 9.86653 -0.00118732 9.60731 0.00137281 9.32416Z" fill="#637381"/>
</svg>
