<svg width="10" height="10" viewBox="0 0 10 10" fill="none" xmlns="http://www.w3.org/2000/svg">
<path d="M0.365709 4.47838C0.365016 4.26041 0.456726 4.05384 0.615146 3.91652L4.66005 0.437305C4.90882 0.218815 5.26746 0.218815 5.51623 0.437305L9.56113 4.03898C9.84782 4.29359 9.88706 4.74832 9.64877 5.05465C9.41049 5.36098 8.98491 5.4029 8.69822 5.14829L5.08477 1.9284L1.47132 5.04024C1.26926 5.2201 0.987759 5.258 0.750263 5.1373C0.512768 5.01661 0.362638 4.75936 0.365709 4.47838Z" fill="#637381" fill-opacity="0.34"/>
<path d="M0.365709 8.40318C0.365016 8.18522 0.456726 7.97864 0.615146 7.84132L4.66005 4.36211C4.90882 4.14362 5.26746 4.14362 5.51623 4.36211L9.56113 7.96378C9.84782 8.21839 9.88706 8.67312 9.64877 8.97945C9.41049 9.28578 8.98491 9.32771 8.69822 9.07309L5.08477 5.8532L1.47132 8.96504C1.26926 9.14491 0.987759 9.1828 0.750263 9.06211C0.512768 8.94141 0.362638 8.68417 0.365709 8.40318Z" fill="#637381"/>
</svg>
