<svg width="20" height="18" viewBox="0 0 20 18" fill="none" xmlns="http://www.w3.org/2000/svg">
<path id="Vector" d="M11.1122 13.3141C11.1122 13.5029 11.0507 13.6875 10.9354 13.8444C10.82 14.0014 10.6561 14.1238 10.4643 14.196C10.2725 14.2683 10.0615 14.2872 9.85787 14.2503C9.65427 14.2135 9.46725 14.1226 9.32046 13.9891C9.17367 13.8556 9.0737 13.6855 9.03321 13.5003C8.99271 13.3152 9.01349 13.1232 9.09293 12.9488C9.17238 12.7744 9.30691 12.6253 9.47951 12.5204C9.65212 12.4155 9.85505 12.3595 10.0626 12.3595C10.341 12.3595 10.608 12.4601 10.8048 12.6391C11.0017 12.8181 11.1122 13.0609 11.1122 13.3141ZM10.0626 4.72304C8.13312 4.72304 6.56396 6.00772 6.56396 7.58673V7.90491C6.56396 8.07369 6.63768 8.23556 6.76891 8.3549C6.90013 8.47424 7.07811 8.54129 7.2637 8.54129C7.44928 8.54129 7.62726 8.47424 7.75848 8.3549C7.88971 8.23556 7.96343 8.07369 7.96343 7.90491V7.58673C7.96343 6.71171 8.90545 5.99579 10.0626 5.99579C11.2198 5.99579 12.1619 6.71171 12.1619 7.58673C12.1619 8.46174 11.2198 9.17767 10.0626 9.17767C9.87706 9.17767 9.69908 9.24471 9.56785 9.36406C9.43663 9.4834 9.36291 9.64526 9.36291 9.81404V10.4504C9.36291 10.6192 9.43663 10.7811 9.56785 10.9004C9.69908 11.0197 9.87706 11.0868 10.0626 11.0868C10.2482 11.0868 10.4262 11.0197 10.5574 10.9004C10.6887 10.7811 10.7624 10.6192 10.7624 10.4504V10.3931C12.3578 10.1267 13.5613 8.96925 13.5613 7.58673C13.5613 6.00772 11.9922 4.72304 10.0626 4.72304ZM19.1592 9.17767C19.1592 10.8139 18.6257 12.4134 17.6262 13.7738C16.6266 15.1343 15.2059 16.1947 13.5437 16.8208C11.8816 17.447 10.0526 17.6108 8.28799 17.2916C6.52343 16.9724 4.90257 16.1845 3.63039 15.0275C2.35821 13.8705 1.49185 12.3964 1.14086 10.7916C0.789863 9.18684 0.970006 7.52344 1.6585 6.01177C2.347 4.5001 3.51293 3.20805 5.00886 2.29902C6.50478 1.38998 8.26351 0.904785 10.0626 0.904785C12.4744 0.907101 14.7867 1.77945 16.4921 3.33041C18.1975 4.88138 19.1567 6.98427 19.1592 9.17767ZM17.7597 9.17767C17.7597 7.79317 17.3083 6.43977 16.4625 5.2886C15.6168 4.13744 14.4147 3.24021 13.0082 2.71039C11.6017 2.18057 10.0541 2.04194 8.56101 2.31204C7.06792 2.58214 5.69643 3.24884 4.61997 4.22783C3.54351 5.20681 2.81043 6.45412 2.51344 7.81201C2.21644 9.1699 2.36887 10.5774 2.95145 11.8565C3.53402 13.1356 4.52058 14.2289 5.78636 14.9981C7.05214 15.7672 8.5403 16.1778 10.0626 16.1778C12.1033 16.1757 14.0598 15.4375 15.5028 14.1252C16.9457 12.8129 17.7574 11.0336 17.7597 9.17767Z" fill="#F8F8F8"/>
</svg>
