<svg width="19" height="18" viewBox="0 0 19 18" fill="none" xmlns="http://www.w3.org/2000/svg">
<path d="M18.878 1.67312C18.8793 2.10905 18.6959 2.52221 18.3791 2.79684L10.2893 9.75527C9.79174 10.1923 9.07445 10.1923 8.57692 9.75527L0.487108 2.55193C-0.0862701 2.04271 -0.164745 1.13325 0.311829 0.520589C0.788403 -0.0920687 1.63956 -0.17592 2.21294 0.333302L2.89949 0.945084C6.64307 4.28093 12.2784 4.3286 16.0778 1.05656L16.6667 0.549402C17.0709 0.189678 17.6339 0.113892 18.1088 0.355278C18.5838 0.596664 18.8841 1.11115 18.878 1.67312Z" fill="#637381"/>
<path d="M18.878 9.52273C18.8793 9.95866 18.6959 10.3718 18.3791 10.6465L10.2893 17.6049C9.79174 18.0419 9.07445 18.0419 8.57692 17.6049L0.487108 10.4015C-0.0862701 9.89232 -0.164745 8.98286 0.311829 8.3702C0.788403 7.75754 1.63956 7.67369 2.21294 8.18291L2.89949 8.79469C6.64307 12.1305 12.2784 12.1782 16.0778 8.90616L16.6667 8.39901C17.0709 8.03929 17.6339 7.9635 18.1088 8.20489C18.5838 8.44627 18.8841 8.96076 18.878 9.52273Z" fill="#ACC6E1"/>
</svg>
