<svg width="19" height="18" viewBox="0 0 19 18" fill="none" xmlns="http://www.w3.org/2000/svg">
<path d="M0.00094986 8.40988C-0.000436783 7.97395 0.182983 7.5608 0.499823 7.28616L8.58964 0.327735C9.08716 -0.109245 9.80446 -0.109245 10.302 0.327735L18.3918 7.53108C18.9652 8.0403 19.0437 8.94976 18.5671 9.56242C18.0905 10.1751 17.2393 10.2589 16.666 9.74971L15.9794 9.13792C12.2358 5.80207 6.60055 5.75441 2.80107 9.02645L2.21217 9.53361C1.80805 9.89333 1.24505 9.96912 0.770058 9.72773C0.295067 9.48634 -0.00519371 8.97185 0.00094986 8.40988Z" fill="#ACC6E1"/>
<path d="M0.00094986 16.2595C-0.000436783 15.8236 0.182983 15.4104 0.499823 15.1358L8.58964 8.17734C9.08716 7.74036 9.80446 7.74036 10.302 8.17734L18.3918 15.3807C18.9652 15.8899 19.0437 16.7994 18.5671 17.412C18.0905 18.0247 17.2393 18.1085 16.666 17.5993L15.9794 16.9875C12.2358 13.6517 6.60055 13.604 2.80107 16.8761L2.21217 17.3832C1.80805 17.7429 1.24505 17.8187 0.770058 17.5773C0.295067 17.336 -0.00519371 16.8215 0.00094986 16.2595Z" fill="#637381"/>
</svg>
